<?xml version="1.0" encoding="utf-8"?>
<!-- Generator: Adobe Illustrator 23.0.3, SVG Export Plug-In . SVG Version: 6.00 Build 0)  -->
<svg version="1.1" id="Camada_1" xmlns="http://www.w3.org/2000/svg" xmlns:xlink="http://www.w3.org/1999/xlink" x="0px" y="0px"
	 viewBox="0 0 963.3 337.3" style="enable-background:new 0 0 963.3 337.3;" xml:space="preserve">
<style type="text/css">
	.st0{fill:#262626;}
	.st1{fill:#C8A85C;}
</style>
<g>
	<path class="st0" d="M237.8,138c-3.8-6.2-14.2-12.1-26.3-12.1c-15.5,0-23,6.3-23,14.4c0,9.4,11.4,12.1,24.7,13.6
		c23.1,2.8,44.6,8.7,44.6,34.5c0,24.1-21.8,34.5-46.5,34.5c-22.6,0-40.1-6.8-48.3-26.6l17.4-8.8c4.9,11.9,17.7,17.2,31.2,17.2
		c13.1,0,25.5-4.5,25.5-16.2c0-10.2-10.9-14.4-25.6-15.9c-22.6-2.6-43.5-8.5-43.5-32.8c0-22.3,22.5-31.4,42.9-31.5
		c17.3,0,35.1,4.8,43.5,21.5L237.8,138z"/>
	<polygon class="st0" points="353.9,220.1 272,220.1 272,110.9 353.9,110.9 353.9,130.8 292.5,130.8 292.5,156 351.7,156 
		351.7,175.2 292.5,175.2 292.5,199.8 353.9,199.8 	"/>
	<path class="st0" d="M466.7,220.1h-24.5l-31.8-36.5h-19.8v36.5h-20.6V110.7c17.3,0,34.7,0.2,52,0.2c25.8,0.2,39.3,17.3,39.3,36.2
		c0,15-6.9,30.1-27.6,34.3l33.1,37.3V220.1z M390.5,130.1v35h31.4c13.1,0,18.7-8.7,18.7-17.5c0-8.7-5.8-17.5-18.7-17.5H390.5z"/>
	<path class="st0" d="M552.8,199.5h-57.1l-9.4,20.6h-22.3l49-109.3h22.5l49,109.3H562L552.8,199.5z M524.2,133.8l-20.3,46.5h40.6
		L524.2,133.8z"/>
	<polygon class="st0" points="592.1,220.1 592.1,111 670.6,111 670.6,130.8 612.7,130.8 612.7,160.7 667.5,160.7 667.5,179.7 
		612.7,179.7 612.7,220.1 	"/>
	<rect x="686.8" y="110.9" class="st0" width="20.5" height="109.3"/>
	<polygon class="st0" points="793.8,110.7 814.4,110.7 814.4,220.1 801.6,220.1 801.6,220.3 744.2,146.5 744.2,220.1 723.6,220.1 
		723.6,110.9 740.3,110.9 793.8,178.6 	"/>
	<polygon class="st0" points="910.3,199.8 851.1,199.8 851.1,175.2 910.3,175.2 910.3,160.5 910.3,156 851.1,156 851.1,130.8 
		912.5,130.8 912.5,110.9 830.7,110.9 830.7,220.1 910.3,220.1 	"/>
	<rect x="926.5" y="199.8" class="st0" width="21" height="20.3"/>
	<path class="st1" d="M112.2,218.8c0,0-6.9-0.2-7.9-2.2c-1-2.1,10.6-3.7,10.6-3.7s3.7-1.6,3.1-5c-0.7-3.4-12.3-123.3-32-172.4
		c0,0-8.3-22.2-17.6-23.7c-9.2,1.5-17.6,23.7-17.6,23.7c-19.6,49.1-31.3,169.1-32,172.4c-0.7,3.4,3.1,5,3.1,5s11.6,1.6,10.6,3.7
		c-1,2.1-7.9,2.2-7.9,2.2c-8.2,0-5.3,10.3-5.3,10.3c4.2,33.5,32.4,40.9,44.2,42.6V313c0,2.7,2.2,4.9,4.9,4.9s4.9-2.2,4.9-4.9v-41.4
		c11.7-1.7,40-9.1,44.2-42.6C117.5,229,120.4,218.8,112.2,218.8 M73.3,263.8V118.4c0-2.7-2.2-4.9-4.9-4.9s-4.9,2.2-4.9,4.9v145.4
		c-32.3-3.3-39.5-37-36.8-37.5c2.9-0.5,12.8-2.1,13.6-9.6c0.8-7.5-13.6-10.8-13.6-10.8s6.4-53,9-70.2C52.1,29.5,68.4,21,68.4,21
		s16.3,8.5,32.7,114.8c2.6,17.1,9,70.2,9,70.2s-14.5,3.2-13.6,10.8c0.8,7.5,10.8,9.2,13.6,9.6C112.8,226.8,105.6,260.5,73.3,263.8"
		/>
</g>
</svg>
