<?xml version="1.0" encoding="utf-8"?>
<!-- Generator: Adobe Illustrator 23.0.3, SVG Export Plug-In . SVG Version: 6.00 Build 0)  -->
<svg version="1.1" id="Camada_1" xmlns="http://www.w3.org/2000/svg" xmlns:xlink="http://www.w3.org/1999/xlink" x="0px" y="0px"
	 viewBox="0 0 1040.5 355.8" style="enable-background:new 0 0 1040.5 355.8;" xml:space="preserve">
<style type="text/css">
	.st0{fill:#FFFFFF;}
	.st1{fill:#C8A85C;}
</style>
<g>
	<path class="st0" d="M243.3,147.4c-3.8-6.2-14.2-12.1-26.3-12.1c-15.5,0-23,6.3-23,14.4c0,9.4,11.4,12.1,24.7,13.6
		c23.1,2.8,44.6,8.7,44.6,34.5c0,24.1-21.8,34.5-46.5,34.5c-22.6,0-40.1-6.8-48.3-26.6l17.4-8.8c4.9,11.9,17.7,17.2,31.2,17.2
		c13.1,0,25.5-4.5,25.5-16.2c0-10.2-10.9-14.4-25.6-15.9c-22.6-2.6-43.5-8.5-43.5-32.8c0-22.3,22.5-31.4,42.9-31.5
		c17.3,0,35.1,4.8,43.5,21.5L243.3,147.4z"/>
	<polygon class="st0" points="359.3,229.6 277.5,229.6 277.5,120.3 359.3,120.3 359.3,140.3 298,140.3 298,165.4 357.2,165.4 
		357.2,184.6 298,184.6 298,209.3 359.3,209.3 	"/>
	<path class="st0" d="M472.2,229.6h-24.5l-31.8-36.5H396v36.5h-20.6V120.2c17.3,0,34.7,0.2,52,0.2c25.8,0.2,39.3,17.3,39.3,36.2
		c0,15-6.9,30.1-27.6,34.3l33.1,37.3V229.6z M396,139.5v35h31.4c13.1,0,18.7-8.7,18.7-17.5c0-8.7-5.8-17.5-18.7-17.5H396z"/>
	<path class="st0" d="M558.2,209h-57.1l-9.4,20.6h-22.3l49-109.3h22.5l49,109.3h-22.5L558.2,209z M529.7,143.3l-20.3,46.5H550
		L529.7,143.3z"/>
	<polygon class="st0" points="597.6,229.6 597.6,120.5 676.1,120.5 676.1,140.3 618.2,140.3 618.2,170.1 673,170.1 673,189.2 
		618.2,189.2 618.2,229.6 	"/>
	<rect x="692.3" y="120.3" class="st0" width="20.5" height="109.3"/>
	<polygon class="st0" points="799.3,120.2 819.9,120.2 819.9,229.6 807.1,229.6 807.1,229.8 749.7,155.9 749.7,229.6 729,229.6 
		729,120.3 745.8,120.3 799.3,188.1 	"/>
	<polygon class="st0" points="915.8,209.3 856.6,209.3 856.6,184.6 915.8,184.6 915.8,169.9 915.8,165.4 856.6,165.4 856.6,140.3 
		918,140.3 918,120.3 836.2,120.3 836.2,229.6 915.8,229.6 	"/>
	<rect x="932" y="209.3" class="st0" width="21" height="20.3"/>
	<path class="st1" d="M117.7,228.2c0,0-6.9-0.2-7.9-2.2c-1-2.1,10.6-3.7,10.6-3.7s3.7-1.6,3.1-5c-0.7-3.4-12.3-123.3-32-172.4
		c0,0-8.3-22.2-17.6-23.7c-9.2,1.5-17.6,23.7-17.6,23.7C36.7,94,25,213.9,24.4,217.3c-0.7,3.4,3.1,5,3.1,5S39,223.9,38,226
		c-1,2.1-7.9,2.2-7.9,2.2c-8.2,0-5.3,10.3-5.3,10.3c4.2,33.5,32.4,40.9,44.2,42.6v41.4c0,2.7,2.2,4.9,4.9,4.9s4.9-2.2,4.9-4.9v-41.4
		c11.7-1.7,40-9.1,44.2-42.6C123,238.5,125.8,228.2,117.7,228.2 M78.8,273.2V127.9c0-2.7-2.2-4.9-4.9-4.9s-4.9,2.2-4.9,4.9v145.4
		c-32.3-3.3-39.5-37-36.8-37.5c2.9-0.5,12.8-2.1,13.6-9.6c0.8-7.5-13.6-10.8-13.6-10.8s6.4-53,9-70.2C57.6,38.9,73.9,30.4,73.9,30.4
		s16.3,8.5,32.7,114.8c2.6,17.1,9,70.2,9,70.2s-14.5,3.2-13.6,10.8c0.8,7.5,10.8,9.2,13.6,9.6C118.3,236.2,111.1,270,78.8,273.2"/>
</g>
</svg>
